<svg width="153" height="36" viewBox="0 0 153 36" fill="none" xmlns="http://www.w3.org/2000/svg">
<path d="M21.9629 26H0.746094V22.7656H0.728516L13.9648 3.92188H0.746094V0.6875H21.9629V3.92188L8.72656 22.7656H21.9629V26ZM29.6094 16.3672C30.3359 16.5312 31.0625 16.6602 31.7891 16.7539C32.5156 16.8477 33.248 16.8945 33.9863 16.8945C34.7598 16.8945 35.4746 16.8242 36.1309 16.6836C36.7988 16.5312 37.373 16.2852 37.8535 15.9453C38.3457 15.5938 38.7324 15.1309 39.0137 14.5566C39.2949 13.9824 39.4355 13.2676 39.4355 12.4121C39.4355 11.7207 39.3418 11.0879 39.1543 10.5137C38.9668 9.93945 38.6855 9.44727 38.3105 9.03711C37.9473 8.62695 37.4961 8.31055 36.957 8.08789C36.418 7.85352 35.791 7.73633 35.0762 7.73633C34.4082 7.73633 33.8047 7.85938 33.2656 8.10547C32.7383 8.35156 32.2695 8.68555 31.8594 9.10742C31.4609 9.51758 31.1152 9.99805 30.8223 10.5488C30.541 11.0996 30.3066 11.6738 30.1191 12.2715C29.9316 12.8691 29.7969 13.4727 29.7148 14.082C29.6328 14.6914 29.5918 15.2656 29.5918 15.8047C29.5918 15.8984 29.5918 15.9922 29.5918 16.0859C29.5918 16.1797 29.5977 16.2734 29.6094 16.3672ZM44.252 12.3594C44.252 13.1914 44.1172 13.9355 43.8477 14.5918C43.5781 15.2363 43.209 15.8047 42.7402 16.2969C42.2832 16.7891 41.75 17.2051 41.1406 17.5449C40.5312 17.8848 39.8809 18.166 39.1895 18.3887C38.498 18.5996 37.7832 18.752 37.0449 18.8457C36.3184 18.9395 35.6094 18.9863 34.918 18.9863C34.0391 18.9863 33.1719 18.9277 32.3164 18.8105C31.4609 18.6816 30.6172 18.4824 29.7852 18.2129C29.9141 18.9863 30.1191 19.7246 30.4004 20.4277C30.6816 21.1191 31.0566 21.7285 31.5254 22.2559C31.9941 22.7715 32.5684 23.1816 33.248 23.4863C33.9395 23.791 34.7539 23.9434 35.6914 23.9434C36.3125 23.9434 36.9043 23.8496 37.4668 23.6621C38.0293 23.4746 38.5449 23.2109 39.0137 22.8711C39.4824 22.5312 39.8926 22.127 40.2441 21.6582C40.6074 21.1895 40.9004 20.668 41.123 20.0938L43.6895 21.043C43.3027 21.9688 42.7695 22.7715 42.0898 23.4512C41.4219 24.1191 40.6602 24.6758 39.8047 25.1211C38.9609 25.5547 38.0586 25.877 37.0977 26.0879C36.1484 26.2988 35.2051 26.4043 34.2676 26.4043C32.7207 26.4043 31.291 26.1465 29.9785 25.6309C28.666 25.1035 27.5352 24.3711 26.5859 23.4336C25.6367 22.4961 24.8926 21.377 24.3535 20.0762C23.8145 18.7754 23.5449 17.3516 23.5449 15.8047C23.5449 14.2578 23.8145 12.834 24.3535 11.5332C24.8926 10.2324 25.6367 9.11328 26.5859 8.17578C27.5352 7.23828 28.666 6.51172 29.9785 5.99609C31.291 5.46875 32.7207 5.20508 34.2676 5.20508C35.0176 5.20508 35.7852 5.25781 36.5703 5.36328C37.3555 5.46875 38.1172 5.63867 38.8555 5.87305C39.5938 6.0957 40.291 6.38867 40.9473 6.75195C41.6035 7.11523 42.1719 7.56641 42.6523 8.10547C43.1445 8.63281 43.5312 9.24805 43.8125 9.95117C44.1055 10.6543 44.252 11.457 44.252 12.3594ZM68.7207 14.3633C68.7207 15.7344 68.5508 17.1641 68.2109 18.6523C67.8828 20.1406 67.4199 21.5996 66.8223 23.0293C66.2246 24.459 65.5098 25.8008 64.6777 27.0547C63.8457 28.3203 62.9316 29.4102 61.9355 30.3242L59.7031 29.1113C60.0195 28.5254 60.3184 27.8691 60.5996 27.1426C60.8809 26.416 61.1328 25.6484 61.3555 24.8398C61.5898 24.0195 61.7949 23.1758 61.9707 22.3086C62.1582 21.4414 62.3105 20.5859 62.4277 19.7422C62.5566 18.8867 62.6504 18.0605 62.709 17.2637C62.7793 16.4551 62.8145 15.7051 62.8145 15.0137C62.8145 14.5566 62.7969 14.0703 62.7617 13.5547C62.7266 13.0273 62.6504 12.5059 62.5332 11.9902C62.4277 11.4629 62.2812 10.959 62.0938 10.4785C61.9062 9.99805 61.6543 9.57617 61.3379 9.21289C61.0332 8.84961 60.6582 8.55664 60.2129 8.33398C59.7793 8.11133 59.2637 8 58.666 8C58.0801 8 57.5586 8.13477 57.1016 8.4043C56.6445 8.66211 56.2402 9.00781 55.8887 9.44141C55.5371 9.86328 55.2324 10.3496 54.9746 10.9004C54.7285 11.4512 54.5234 12.0195 54.3594 12.6055C54.207 13.1797 54.0957 13.748 54.0254 14.3105C53.9551 14.873 53.9199 15.377 53.9199 15.8223V26H47.9609V5.69727H50.2461L52.9707 10.4258C53.2988 9.64062 53.709 8.92578 54.2012 8.28125C54.6934 7.63672 55.25 7.08594 55.8711 6.62891C56.4922 6.17188 57.1777 5.82031 57.9277 5.57422C58.6895 5.32812 59.5098 5.20508 60.3887 5.20508C61.7949 5.20508 63.0195 5.43359 64.0625 5.89062C65.1055 6.34766 65.9727 6.98633 66.6641 7.80664C67.3555 8.61523 67.8711 9.58203 68.2109 10.707C68.5508 11.8203 68.7207 13.0391 68.7207 14.3633ZM77.5625 3.42969C77.5625 3.96875 77.4922 4.51953 77.3516 5.08203C77.2109 5.64453 77.0117 6.18945 76.7539 6.7168C76.5078 7.24414 76.2148 7.74805 75.875 8.22852C75.5352 8.69727 75.166 9.11328 74.7676 9.47656L72.2363 8.14062C72.4824 7.95312 72.7285 7.70703 72.9746 7.40234C73.2324 7.09766 73.3848 6.79297 73.4316 6.48828C73.0918 6.38281 72.7812 6.23047 72.5 6.03125C72.2305 5.83203 71.9961 5.59766 71.7969 5.32812C71.5977 5.05859 71.4395 4.76562 71.3223 4.44922C71.2168 4.12109 71.1641 3.78125 71.1641 3.42969C71.1641 2.99609 71.2461 2.58594 71.4102 2.19922C71.5859 1.80078 71.8145 1.46094 72.0957 1.17969C72.3887 0.886719 72.7285 0.658203 73.1152 0.494141C73.502 0.318359 73.918 0.230469 74.3633 0.230469C74.8086 0.230469 75.2246 0.3125 75.6113 0.476562C75.998 0.640625 76.3379 0.869141 76.6309 1.16211C76.9238 1.45508 77.1523 1.79492 77.3164 2.18164C77.4805 2.56836 77.5625 2.98438 77.5625 3.42969ZM102.805 18.2656C102.805 19.3555 102.664 20.3164 102.383 21.1484C102.113 21.9805 101.727 22.7012 101.223 23.3105C100.73 23.9199 100.145 24.4297 99.4648 24.8398C98.7852 25.25 98.041 25.5781 97.2324 25.8242C96.4355 26.0703 95.5859 26.2461 94.6836 26.3516C93.793 26.457 92.8848 26.5098 91.959 26.5098C90.7402 26.5098 89.6152 26.416 88.584 26.2285C87.5527 26.0527 86.5801 25.7715 85.666 25.3848C84.7637 24.9863 83.8906 24.4766 83.0469 23.8555C82.2148 23.2344 81.3828 22.4785 80.5508 21.5879L84.1367 17.9492C84.4648 18.7578 84.916 19.5078 85.4902 20.1992C86.0645 20.8789 86.6914 21.4648 87.3711 21.957C88.0625 22.4492 88.7773 22.8359 89.5156 23.1172C90.2539 23.3984 90.9512 23.5391 91.6074 23.5391C92.3809 23.5391 93.1074 23.4863 93.7871 23.3809C94.4668 23.2637 95.0586 23.0762 95.5625 22.8184C96.0664 22.5605 96.459 22.2207 96.7402 21.7988C97.0332 21.3652 97.1797 20.8262 97.1797 20.1816C97.1797 19.6895 97.0684 19.2676 96.8457 18.916C96.623 18.5645 96.3301 18.2656 95.9668 18.0195C95.6152 17.7617 95.2109 17.5449 94.7539 17.3691C94.2969 17.1934 93.8281 17.0469 93.3477 16.9297C92.8789 16.8008 92.416 16.6895 91.959 16.5957C91.502 16.4902 91.0977 16.3848 90.7461 16.2793C90.0547 16.0801 89.334 15.8691 88.584 15.6465C87.834 15.4121 87.0957 15.1484 86.3691 14.8555C85.6426 14.5625 84.9512 14.2285 84.2949 13.8535C83.6504 13.4668 83.082 13.0156 82.5898 12.5C82.0977 11.9727 81.7051 11.3691 81.4121 10.6895C81.1191 9.99805 80.9727 9.20703 80.9727 8.31641C80.9727 7.25 81.1016 6.30664 81.3594 5.48633C81.6289 4.6543 82.0039 3.93359 82.4844 3.32422C82.9648 2.71484 83.5332 2.20508 84.1895 1.79492C84.8457 1.37305 85.5664 1.03906 86.3516 0.792969C87.1367 0.535156 87.9688 0.353516 88.8477 0.248047C89.7383 0.130859 90.6465 0.0722656 91.5723 0.0722656C92.8379 0.0722656 93.9863 0.189453 95.0176 0.423828C96.0605 0.658203 97.0215 0.992187 97.9004 1.42578C98.7793 1.85938 99.582 2.38086 100.309 2.99023C101.047 3.58789 101.738 4.25586 102.383 4.99414L98.7969 8.63281C98.5156 7.78906 98.123 7.02734 97.6191 6.34766C97.127 5.66797 96.5762 5.08789 95.9668 4.60742C95.3574 4.11523 94.7188 3.74023 94.0508 3.48242C93.3828 3.21289 92.7383 3.07812 92.1172 3.07812C91.3086 3.07812 90.5645 3.13672 89.8848 3.25391C89.2051 3.35938 88.6191 3.54102 88.127 3.79883C87.6465 4.04492 87.2715 4.38477 87.002 4.81836C86.7324 5.24023 86.5977 5.76758 86.5977 6.40039C86.5977 6.9043 86.6973 7.33203 86.8965 7.68359C87.0957 8.03516 87.3594 8.33398 87.6875 8.58008C88.0273 8.82617 88.4082 9.03125 88.8301 9.19531C89.252 9.34766 89.6855 9.48242 90.1309 9.59961C90.5879 9.7168 91.0332 9.82227 91.4668 9.91602C91.9121 9.99805 92.3164 10.0918 92.6797 10.1973C93.3828 10.3965 94.1211 10.6074 94.8945 10.8301C95.668 11.0527 96.4297 11.3164 97.1797 11.6211C97.9297 11.9141 98.6445 12.2539 99.3242 12.6406C100.004 13.0273 100.602 13.4902 101.117 14.0293C101.633 14.5566 102.043 15.1719 102.348 15.875C102.652 16.5664 102.805 17.3633 102.805 18.2656ZM128.082 15.8047C128.082 17.2812 127.859 18.6641 127.414 19.9531C126.969 21.2422 126.324 22.3672 125.48 23.3281C124.637 24.2773 123.605 25.0273 122.387 25.5781C121.168 26.1289 119.785 26.4043 118.238 26.4043C117.055 26.4043 115.965 26.1758 114.969 25.7188C113.984 25.25 113.141 24.5352 112.438 23.5742V35.3691H106.496V5.69727H108.781L111.418 10.1094C111.676 9.37109 112.027 8.70312 112.473 8.10547C112.93 7.49609 113.451 6.98047 114.037 6.55859C114.635 6.125 115.285 5.79102 115.988 5.55664C116.703 5.32227 117.453 5.20508 118.238 5.20508C119.785 5.20508 121.168 5.48047 122.387 6.03125C123.605 6.58203 124.637 7.33789 125.48 8.29883C126.324 9.24805 126.969 10.3672 127.414 11.6562C127.859 12.9453 128.082 14.3281 128.082 15.8047ZM122.053 15.8047C122.053 15.2891 122.023 14.7441 121.965 14.1699C121.918 13.584 121.83 13.0039 121.701 12.4297C121.572 11.8555 121.391 11.3047 121.156 10.7773C120.934 10.25 120.646 9.78711 120.295 9.38867C119.943 8.97852 119.516 8.65625 119.012 8.42188C118.52 8.17578 117.945 8.05273 117.289 8.05273C116.609 8.05273 116.018 8.16992 115.514 8.4043C115.021 8.63867 114.594 8.96094 114.23 9.37109C113.879 9.76953 113.586 10.2324 113.352 10.7598C113.129 11.2754 112.953 11.8203 112.824 12.3945C112.695 12.9688 112.602 13.5488 112.543 14.1348C112.496 14.7207 112.473 15.2773 112.473 15.8047C112.473 16.2734 112.508 16.7949 112.578 17.3691C112.648 17.9316 112.76 18.5 112.912 19.0742C113.064 19.6484 113.264 20.2051 113.51 20.7441C113.756 21.2832 114.055 21.7637 114.406 22.1855C114.77 22.6074 115.186 22.9473 115.654 23.2051C116.135 23.4512 116.68 23.5742 117.289 23.5742C117.957 23.5742 118.537 23.457 119.029 23.2227C119.521 22.9766 119.943 22.6543 120.295 22.2559C120.646 21.8457 120.934 21.377 121.156 20.8496C121.391 20.3223 121.572 19.7715 121.701 19.1973C121.83 18.623 121.918 18.043 121.965 17.457C122.023 16.8711 122.053 16.3203 122.053 15.8047ZM152.357 26H146.416V23.5742C145.713 24.5352 144.863 25.25 143.867 25.7188C142.883 26.1758 141.799 26.4043 140.615 26.4043C139.068 26.4043 137.686 26.1289 136.467 25.5781C135.248 25.0273 134.217 24.2773 133.373 23.3281C132.529 22.3672 131.885 21.2422 131.439 19.9531C130.994 18.6641 130.771 17.2812 130.771 15.8047C130.771 14.3281 130.994 12.9453 131.439 11.6562C131.885 10.3672 132.529 9.24805 133.373 8.29883C134.217 7.33789 135.248 6.58203 136.467 6.03125C137.686 5.48047 139.068 5.20508 140.615 5.20508C141.4 5.20508 142.145 5.32227 142.848 5.55664C143.562 5.79102 144.213 6.125 144.799 6.55859C145.396 6.98047 145.918 7.49609 146.363 8.10547C146.82 8.70312 147.178 9.37109 147.436 10.1094L150.072 5.69727H152.357V26ZM146.381 15.8047C146.381 15.2773 146.352 14.7207 146.293 14.1348C146.246 13.5488 146.158 12.9688 146.029 12.3945C145.9 11.8203 145.719 11.2754 145.484 10.7598C145.262 10.2324 144.969 9.76953 144.605 9.37109C144.254 8.96094 143.826 8.63867 143.322 8.4043C142.818 8.16992 142.232 8.05273 141.564 8.05273C140.896 8.05273 140.316 8.17578 139.824 8.42188C139.332 8.65625 138.91 8.97852 138.559 9.38867C138.207 9.78711 137.914 10.25 137.68 10.7773C137.457 11.3047 137.281 11.8555 137.152 12.4297C137.023 13.0039 136.93 13.584 136.871 14.1699C136.824 14.7441 136.801 15.2891 136.801 15.8047C136.801 16.3203 136.824 16.8711 136.871 17.457C136.93 18.043 137.023 18.623 137.152 19.1973C137.281 19.7715 137.457 20.3223 137.68 20.8496C137.914 21.377 138.207 21.8457 138.559 22.2559C138.91 22.6543 139.332 22.9766 139.824 23.2227C140.316 23.457 140.896 23.5742 141.564 23.5742C142.174 23.5742 142.713 23.4512 143.182 23.2051C143.662 22.9473 144.078 22.6074 144.43 22.1855C144.793 21.7637 145.098 21.2832 145.344 20.7441C145.59 20.2051 145.789 19.6484 145.941 19.0742C146.094 18.5 146.205 17.9316 146.275 17.3691C146.346 16.7949 146.381 16.2734 146.381 15.8047Z" fill="black"/>
</svg>
